<?xml version="1.0" encoding="utf-8"?>
<!-- Generator: Adobe Illustrator 19.2.1, SVG Export Plug-In . SVG Version: 6.00 Build 0)  -->
<svg version="1.1" id="Layer_1" xmlns="http://www.w3.org/2000/svg" xmlns:xlink="http://www.w3.org/1999/xlink" x="0px" y="0px"
	 viewBox="0 0 37 37" style="enable-background:new 0 0 37 37;" xml:space="preserve">
<style type="text/css">
	.st0{fill:#FFFFFF;}
</style>
<title>coffee-beans</title>
<desc>Created with Sketch.</desc>
<g id="Page-1">
	<g id="Desktop" transform="translate(-702.000000, -1448.000000)">
		<g id="coffee-beans" transform="translate(701.000000, 1448.000000)">
			<path id="Fill-1" class="st0" d="M14.4,14.9c1.9-3.1,4.6-5.5,7.7-6.8c-2.6-5-7.4-8-12-7.7c2.1,2.3,3.8,6.3,4.2,13
				C14.4,14,14.4,14.4,14.4,14.9z"/>
			<path id="Fill-3" class="st0" d="M10.4,13.6C10,6.3,7.7,3.2,5.9,2c-4.5,3-6.2,9.8-3.8,16.2c1.8,5,5.6,8.4,9.6,9.5
				c-0.2-1.9-0.2-3.9,0.2-5.9C11.1,19.4,10.5,16.8,10.4,13.6z"/>
			<path id="Fill-4" class="st0" d="M32.3,11c-1.8,1.3-4.2,4.3-4.5,11.6c-0.3,6.6-2.3,11.2-4.9,14.3c0.3,0,0.6,0.1,1,0.1
				c5,0,10-3.9,12.2-9.8C38.4,20.7,36.8,14,32.3,11z"/>
			<path id="Fill-6" class="st0" d="M28,9.6h-0.8c-5,0-10,3.8-12.2,9.8c-2.4,6.5-0.6,13.2,3.8,16.2c2.5-2.6,4.7-6.6,5-13
				C24.1,15.8,25.9,11.9,28,9.6z"/>
		</g>
	</g>
</g>
</svg>
