<?xml version="1.0" encoding="utf-8"?>
<!-- Generator: Adobe Illustrator 19.2.1, SVG Export Plug-In . SVG Version: 6.00 Build 0)  -->
<svg version="1.1" id="Layer_1" xmlns="http://www.w3.org/2000/svg" xmlns:xlink="http://www.w3.org/1999/xlink" x="0px" y="0px"
	 viewBox="0 0 179 40" style="enable-background:new 0 0 179 40;" xml:space="preserve">
<style type="text/css">
	.st0{fill:#FFFFFF;}
	.st1{font-family:'ArialMT';}
	.st2{font-size:24px;}
	.st3{fill:#28E7A8;}
	.st4{font-family:'Arial-BoldMT';}
</style>
<title>logo</title>
<desc>Created with Sketch.</desc>
<g id="Page-1">
	<g id="Desktop" transform="translate(-165.000000, -25.000000)">
		<g id="logo" transform="translate(165.000000, 25.000000)">
			<g id="Group-3">
				<g id="Group">
					<path id="Fill-1" class="st0" d="M35.9,20.6c-0.5-0.7-1.3-1.1-2.2-1.1h-4.4c0-0.7,0.1-1.2,0.1-1.6s-0.3-0.7-0.7-0.7H1
						c-0.4,0-0.7,0.3-0.7,0.7c0,3,0.8,14.6,10.3,17.5H1.7c-0.6,0-1.2,0.4-1.4,0.9L0.1,37c-0.2,0.6,0,1,0.6,1h28.2
						c0.6,0,0.9-0.4,0.6-0.9l-0.3-0.7c-0.2-0.5-0.8-0.9-1.4-0.9h-8.4c3.2-1,5.4-3.1,6.8-5.6c6.1-0.2,8.7-4.4,9.8-6.9
						C36.4,22.1,36.3,21.3,35.9,20.6z M34.2,22.1c-0.9,2.3-2.9,5-6.8,5.6c0.9-2.1,1.4-4.3,1.6-6.1h4.7c0.3,0,0.4,0.1,0.5,0.2
						C34.2,21.8,34.2,22,34.2,22.1z"/>
					<path id="Fill-3" class="st0" d="M14.6,16.3c0.1,0.2,0.3,0.3,0.5,0.3s0.3-0.1,0.5-0.2c0.3-0.3,0.3-0.7,0.1-1
						c0,0-1.9-2.3-0.7-3.9c1.7-2.1,0.6-3.8-0.1-4.4c-0.3-0.3-0.8-0.2-1,0.1c-0.2,0.3-0.2,0.8,0.1,1c0.2,0.1,1,1-0.1,2.4
						C11.8,13.1,14.5,16.2,14.6,16.3z"/>
					<path id="Fill-4" class="st0" d="M18.5,3.3c0.3-0.3,0.4-0.7,0.1-1s-0.7-0.4-1-0.1c-0.8,0.6-1.8,2.3-0.1,4.4
						c1.2,1.6-0.7,3.8-0.7,3.9c-0.3,0.3-0.2,0.8,0.1,1c0.1,0.1,0.3,0.2,0.5,0.2s0.4-0.1,0.6-0.3c0.1-0.1,2.7-3.2,0.7-5.7
						C17.5,4.3,18.3,3.5,18.5,3.3z"/>
				</g>
				<text transform="matrix(1 0 0 1 49.9987 35.9899)" class="st0 st1 st2">Coffee</text>
				<text transform="matrix(1 0 0 1 123.3666 35.9899)" class="st3 st4 st2">Drop</text>
			</g>
		</g>
	</g>
</g>
</svg>
